<?xml version="1.0" encoding="UTF-8"?>
<svg version="1.1" xmlns="http://www.w3.org/2000/svg" width="1080" height="1080">
<path d="M0 0 C356.4 0 712.8 0 1080 0 C1080 356.4 1080 712.8 1080 1080 C723.6 1080 367.2 1080 0 1080 C0 723.6 0 367.2 0 0 Z " fill="#FEFEFE" transform="translate(0,0)"/>
<path d="M0 0 C1.39424194 -0.00027191 1.39424194 -0.00027191 2.81665039 -0.00054932 C20.26435603 0.04753139 36.41221407 2.09601445 53.3125 6.5625 C54.25432129 6.80806641 55.19614258 7.05363281 56.16650391 7.30664062 C78.14099038 13.22081196 98.6731726 23.82069231 117.4375 36.5625 C118.13117676 37.03147705 118.82485352 37.5004541 119.53955078 37.98364258 C121.17071944 39.12103061 122.74812112 40.33486753 124.3125 41.5625 C124.3125 42.2225 124.3125 42.8825 124.3125 43.5625 C125.0240625 43.79324219 125.735625 44.02398437 126.46875 44.26171875 C129.87783185 45.82109273 132.07968069 47.81490102 134.8125 50.375 C135.7303125 51.22707031 136.648125 52.07914062 137.59375 52.95703125 C140.20328608 55.45783666 142.76097999 58.00272264 145.3125 60.5625 C145.99570312 61.21089844 146.67890625 61.85929687 147.3828125 62.52734375 C163.74635107 78.23758515 175.87261804 98.06852172 185.3125 118.5625 C185.83199219 119.67367187 186.35148437 120.78484375 186.88671875 121.9296875 C188.45967782 125.43891378 189.91918133 128.97930167 191.3125 132.5625 C191.59480469 133.27873535 191.87710937 133.9949707 192.16796875 134.73291016 C209.69071255 180.137094 207.20520033 235.18385281 195.03515625 281.76904297 C194.22998763 284.8814549 193.47389583 288.00399359 192.71875 291.12890625 C189.35895029 304.81224278 185.3165144 318.00579741 180.23828125 331.14648438 C179.37216275 333.40679783 178.53825604 335.67556381 177.71875 337.953125 C174.425541 347.07253078 170.56716682 355.85435016 166.3125 364.5625 C165.89758301 365.42343262 165.48266602 366.28436523 165.05517578 367.17138672 C152.84327454 392.46528169 138.75011466 416.76694004 122.3125 439.5625 C121.7246875 440.38234375 121.136875 441.2021875 120.53125 442.046875 C118.47374877 444.89702014 116.39650328 447.73166961 114.3125 450.5625 C113.86745117 451.16900391 113.42240234 451.77550781 112.96386719 452.40039062 C106.47463799 461.22574233 99.75598947 469.74701724 92.60742188 478.04541016 C88.3403602 483.04456574 84.15052397 488.13428485 80.18359375 493.375 C79.56613281 494.096875 78.94867187 494.81875 78.3125 495.5625 C77.6525 495.5625 76.9925 495.5625 76.3125 495.5625 C76.04912842 496.15256836 75.78575684 496.74263672 75.5144043 497.35058594 C74.26048348 499.65822815 72.96054739 501.12977394 71.08203125 502.953125 C70.44765137 503.57598389 69.81327148 504.19884277 69.15966797 504.84057617 C68.48822754 505.49131104 67.81678711 506.1420459 67.125 506.8125 C61.20244763 512.58967524 61.20244763 512.58967524 55.6875 518.75 C51.83588108 523.29393523 47.39323118 527.20352166 42.98828125 531.1953125 C40.35821798 533.58419718 37.78370854 536.02138792 35.23046875 538.4921875 C34.53751709 539.15790771 33.84456543 539.82362793 33.13061523 540.50952148 C31.7911365 541.7987164 30.4581547 543.09471003 29.13305664 544.39868164 C20.17339144 552.96894646 10.6051045 557.22756485 -1.87109375 557.08203125 C-10.38382197 555.92318493 -18.35107624 551.27354115 -24.6875 545.5625 C-24.6875 544.9025 -24.6875 544.2425 -24.6875 543.5625 C-25.28320801 543.28825195 -25.87891602 543.01400391 -26.49267578 542.73144531 C-28.60360872 541.6071798 -30.06930021 540.48770739 -31.8046875 538.859375 C-32.40095947 538.30193604 -32.99723145 537.74449707 -33.61157227 537.17016602 C-34.25537842 536.55713623 -34.89918457 535.94410645 -35.5625 535.3125 C-36.58525024 534.34558228 -36.58525024 534.34558228 -37.62866211 533.35913086 C-43.92181978 527.3686026 -50.09664119 521.25843331 -56.25 515.125 C-57.17731934 514.20235352 -58.10463867 513.27970703 -59.06005859 512.32910156 C-64.14434003 507.23283977 -69.00549819 502.0283487 -73.6875 496.5625 C-75.14195517 494.95481627 -76.59970895 493.35010285 -78.0625 491.75 C-81.90117163 487.49127171 -85.57225665 483.12678016 -89.17578125 478.66796875 C-91.03610248 476.36788263 -92.90802335 474.08050364 -94.79296875 471.80078125 C-101.36472739 463.82794195 -107.59966572 455.72316598 -113.50341797 447.24511719 C-115.04852567 445.04947135 -116.64119628 442.88920578 -118.22802734 440.72363281 C-129.13663829 425.74135811 -138.94200181 409.8968571 -147.6875 393.5625 C-148.13802734 392.72702637 -148.58855469 391.89155273 -149.05273438 391.03076172 C-159.05489816 372.41859113 -168.46326622 353.44195182 -175.6875 333.5625 C-176.15414063 332.3765625 -176.62078125 331.190625 -177.1015625 329.96875 C-184.30270944 311.63389837 -188.83279876 292.57139111 -193.06640625 273.36767578 C-193.57205176 271.08392307 -194.09368138 268.80519283 -194.625 266.52734375 C-195.427462 262.88700831 -196.09798394 259.24189334 -196.6875 255.5625 C-196.82285156 254.74652344 -196.95820313 253.93054688 -197.09765625 253.08984375 C-201.95180259 222.34691696 -203.48454334 186.86059993 -195.6875 156.5625 C-195.47319336 155.67788086 -195.25888672 154.79326172 -195.03808594 153.88183594 C-184.10731654 109.34730384 -156.97751387 65.61264212 -118.6875 39.5625 C-118.03056152 39.10423828 -117.37362305 38.64597656 -116.69677734 38.17382812 C-96.26103137 23.92301094 -75.05271762 13.60591999 -51.0625 6.75 C-50.09892578 6.4720459 -49.13535156 6.1940918 -48.14257812 5.90771484 C-32.17826286 1.53906561 -16.51175976 -0.04997506 0 0 Z " fill="#E21D2B" transform="translate(537.6875,230.4375)"/>
<path d="M0 0 C4.89106953 3.39597223 9.48294843 7.12576517 14 11 C14.93714844 11.79664063 15.87429688 12.59328125 16.83984375 13.4140625 C22.00881621 17.93788501 26.72103241 22.62702833 31 28 C31.82113281 29.02222656 32.64226562 30.04445313 33.48828125 31.09765625 C57.11552987 61.38758515 67.55273846 98.70103016 63.38037109 136.7902832 C62.99112412 139.87262802 62.51014059 142.93558906 62 146 C61.86722656 146.87011719 61.73445313 147.74023438 61.59765625 148.63671875 C58.15145739 168.49338839 49.65055741 187.65618219 38 204 C37.61618164 204.54462891 37.23236328 205.08925781 36.83691406 205.65039062 C16.94211189 233.57931358 -12.93276262 253.7901771 -46.37109375 261.39794922 C-48.29116282 261.83766786 -50.20452136 262.3069867 -52.11328125 262.79345703 C-60.75379483 264.87344368 -68.87101294 265.46867946 -77.70361328 265.39111328 C-79.866857 265.37506043 -82.02821927 265.39104769 -84.19140625 265.41015625 C-94.10045332 265.42510816 -103.33985214 264.15298693 -113 262 C-113.85883789 261.81727539 -114.71767578 261.63455078 -115.60253906 261.44628906 C-151.26033477 253.49545537 -183.07709811 229.73215092 -202.61816406 199.234375 C-211.78001483 184.42001842 -218.19511653 169.02255996 -222.3125 152.125 C-222.55202393 151.14539307 -222.55202393 151.14539307 -222.79638672 150.14599609 C-230.68266569 115.33308506 -223.58664743 76.611554 -205.2109375 46.26953125 C-196.39496966 32.34671689 -185.80806705 19.43028237 -173 9 C-172.10152344 8.26523437 -171.20304687 7.53046875 -170.27734375 6.7734375 C-159.3115091 -1.81622033 -146.92511932 -8.80595338 -134 -14 C-133.39639648 -14.24347168 -132.79279297 -14.48694336 -132.17089844 -14.73779297 C-121.25544117 -19.06596717 -110.59697902 -21.35512236 -99 -23 C-98.20279541 -23.17273438 -97.40559082 -23.34546875 -96.58422852 -23.5234375 C-63.99148528 -29.53392732 -27.19015487 -17.57773382 0 0 Z " fill="#FDFDFE" transform="translate(620,310)"/>
<path d="M0 0 C4.83595857 3.15817703 8.48693867 6.42149026 12.19140625 10.84375 C14.03000798 13.03577625 15.94396999 15.13925037 17.875 17.25 C35.05727202 36.67487182 47.36902795 59.65760508 56.22705078 83.91259766 C56.91091724 85.7594259 57.63788486 87.59016881 58.37109375 89.41796875 C74.33306319 131.83404332 69.98689096 186.08866169 58.72265625 229.20654297 C57.91748763 232.3189549 57.16139583 235.44149359 56.40625 238.56640625 C53.04645029 252.24974278 49.0040144 265.44329741 43.92578125 278.58398438 C43.05966275 280.84429783 42.22575604 283.11306381 41.40625 285.390625 C38.113041 294.51003078 34.25466682 303.29185016 30 312 C29.58508301 312.86093262 29.17016602 313.72186523 28.74267578 314.60888672 C16.53077454 339.90278169 2.43761466 364.20444004 -14 387 C-14.5878125 387.81984375 -15.175625 388.6396875 -15.78125 389.484375 C-17.83875123 392.33452014 -19.91599672 395.16916961 -22 398 C-22.44504883 398.60650391 -22.89009766 399.21300781 -23.34863281 399.83789062 C-29.83786201 408.66324233 -36.55651053 417.18451724 -43.70507812 425.48291016 C-47.9721398 430.48206574 -52.16197603 435.57178485 -56.12890625 440.8125 C-56.74636719 441.534375 -57.36382813 442.25625 -58 443 C-58.66 443 -59.32 443 -60 443 C-60.26337158 443.59006836 -60.52674316 444.18013672 -60.7980957 444.78808594 C-62.05201652 447.09572815 -63.35195261 448.56727394 -65.23046875 450.390625 C-65.86484863 451.01348389 -66.49922852 451.63634277 -67.15283203 452.27807617 C-67.82427246 452.92881104 -68.49571289 453.5795459 -69.1875 454.25 C-75.11005237 460.02717524 -75.11005237 460.02717524 -80.625 466.1875 C-84.47661892 470.73143523 -88.91926882 474.64102166 -93.32421875 478.6328125 C-95.95428202 481.02169718 -98.52879146 483.45888792 -101.08203125 485.9296875 C-101.77498291 486.59540771 -102.46793457 487.26112793 -103.18188477 487.94702148 C-104.5213635 489.2362164 -105.8543453 490.53221003 -107.17944336 491.83618164 C-116.13910856 500.40644646 -125.7073955 504.66506485 -138.18359375 504.51953125 C-146.69632197 503.36068493 -154.66357624 498.71104115 -161 493 C-161 492.34 -161 491.68 -161 491 C-161.59570801 490.72575195 -162.19141602 490.45150391 -162.80517578 490.16894531 C-164.91610872 489.0446798 -166.38180021 487.92520739 -168.1171875 486.296875 C-168.71345947 485.73943604 -169.30973145 485.18199707 -169.92407227 484.60766602 C-170.56787842 483.99463623 -171.21168457 483.38160645 -171.875 482.75 C-172.5568335 482.10538818 -173.23866699 481.46077637 -173.94116211 480.79663086 C-180.23431978 474.8061026 -186.40914119 468.69593331 -192.5625 462.5625 C-193.48981934 461.63985352 -194.41713867 460.71720703 -195.37255859 459.76660156 C-200.45684003 454.67033977 -205.31799819 449.4658487 -210 444 C-211.45445517 442.39231627 -212.91220895 440.78760285 -214.375 439.1875 C-218.21367163 434.92877171 -221.88475665 430.56428016 -225.48828125 426.10546875 C-227.34860248 423.80538263 -229.22052335 421.51800364 -231.10546875 419.23828125 C-237.31122573 411.70842146 -243.24327674 404.07721201 -248.83203125 396.078125 C-251.14437265 392.79501685 -253.55608005 389.60829607 -256.0390625 386.453125 C-257 385 -257 385 -257 383 C-250.98273688 384.7791427 -244.98719608 386.62268265 -239 388.5 C-237.60421258 388.93634482 -236.2083801 389.37254552 -234.8125 389.80859375 C-232.64509064 390.48590918 -230.4781095 391.16460791 -228.3125 391.84765625 C-200.95753947 400.30366601 -173.55477386 403.4832084 -145 403 C-143.83597656 402.98324219 -142.67195312 402.96648437 -141.47265625 402.94921875 C-119.33044013 401.93085139 -94.85299483 394.23832734 -77 381 C-75.60201172 380.00419922 -75.60201172 380.00419922 -74.17578125 378.98828125 C-59.42041031 368.24482816 -45.69110388 356.04343867 -34 342 C-32.74509766 340.52080078 -32.74509766 340.52080078 -31.46484375 339.01171875 C-18.16912792 323.05777717 -6.59572652 305.41376572 3 287 C3.42055664 286.20513184 3.84111328 285.41026367 4.27441406 284.59130859 C22.44301591 250.08925124 34.24061888 213.29350928 38.70629883 174.51513672 C38.95264966 172.40548894 39.23391662 170.2999586 39.5234375 168.19580078 C40.02458038 164.18508116 40.14489932 160.2318439 40.16796875 156.1875 C40.17229416 155.46506607 40.17661957 154.74263214 40.18107605 153.99830627 C40.19114046 151.66546975 40.19126146 149.33285382 40.1875 147 C40.18623108 146.19666229 40.18496216 145.39332458 40.18365479 144.56564331 C40.03742943 95.92758475 28.68339361 49.63426544 3.55859375 7.7421875 C2.11880568 5.20902654 1.00513277 2.73036067 0 0 Z " fill="#BB1C2F" transform="translate(674,283)"/>
<path d="M0 0 C1.21945312 0.46148437 2.43890625 0.92296875 3.6953125 1.3984375 C5.36207031 2.03652344 5.36207031 2.03652344 7.0625 2.6875 C8.49606505 3.1783138 9.93307458 3.65931981 11.375 4.125 C39.23878813 13.34463578 66.3777758 24.43060982 92.0625 38.6875 C93.04299316 39.23051758 94.02348633 39.77353516 95.03369141 40.33300781 C98.11804616 42.05552143 101.18608389 43.80392386 104.25 45.5625 C105.22565918 46.1100293 106.20131836 46.65755859 107.20654297 47.22167969 C108.54869873 48.00526855 108.54869873 48.00526855 109.91796875 48.8046875 C110.71871826 49.26472168 111.51946777 49.72475586 112.34448242 50.19873047 C112.91142822 50.69002441 113.47837402 51.18131836 114.0625 51.6875 C114.0625 53.0075 114.0625 54.3275 114.0625 55.6875 C112.04401048 57.4230237 110.17388932 58.78069293 107.9375 60.1875 C107.27153809 60.61546875 106.60557617 61.0434375 105.91943359 61.484375 C88.77405887 72.30566796 71.02780743 80.57885527 52.0625 87.6875 C51.39887451 87.94144531 50.73524902 88.19539063 50.05151367 88.45703125 C43.46120266 90.96928747 36.79041577 93.25888457 30.125 95.5625 C29.4837619 95.78437988 28.8425238 96.00625977 28.18185425 96.23486328 C19.29824472 99.30258456 10.39563276 102.20496421 1.34765625 104.75 C-0.8338112 105.3725353 -2.9974433 106.06152151 -5.13671875 106.81640625 C-12.78858026 109.19627392 -20.79326116 105.63799887 -28.078125 103.25390625 C-31.61425705 102.0986611 -35.16603659 101.01637465 -38.734375 99.96484375 C-73.50278504 89.66640064 -106.06261867 76.39026864 -135.9375 55.6875 C-135.921875 53.4921875 -135.921875 53.4921875 -134.9375 50.6875 C-132.58929952 48.66607707 -129.90503967 47.2809582 -127.1875 45.8125 C-125.95036255 45.12172363 -125.95036255 45.12172363 -124.68823242 44.41699219 C-121.78529737 42.81323048 -118.86468933 41.24655142 -115.9375 39.6875 C-114.78781738 39.07422852 -113.63813477 38.46095703 -112.45361328 37.82910156 C-98.85649759 30.60267043 -85.23832729 23.43447654 -70.9375 17.6875 C-69.48851318 17.09340332 -69.48851318 17.09340332 -68.01025391 16.48730469 C-54.71426591 11.04668402 -41.33658006 5.97448684 -27.6875 1.5 C-26.52831055 1.11344238 -25.36912109 0.72688477 -24.17480469 0.32861328 C-15.20832256 -2.53564294 -9.01441915 -3.50044455 0 0 Z " fill="#54C6DA" transform="translate(550.9375,342.3125)"/>
<path d="M0 0 C2.56739284 1.02444781 5.13253253 2.05382745 7.69360352 3.09399414 C25.24790315 10.21762617 42.87739455 16.44648475 61 22 C62.73968006 22.54396157 64.47927255 23.08820338 66.21875 23.6328125 C80.43646723 28.09385525 80.43646723 28.09385525 94.8125 25.8125 C95.58746826 25.55057861 96.36243652 25.28865723 97.16088867 25.01879883 C99.00008593 24.39693664 100.83689056 23.76797456 102.671875 23.13378906 C106.59213912 21.79827655 110.52918066 20.51934862 114.46875 19.2421875 C130.60176742 13.99099323 146.55058228 8.58841348 162.09765625 1.74926758 C164.04365345 0.98280641 165.96209349 0.4615359 168 0 C168.41330425 16.66569899 167.83664428 33.13271536 166.625 49.75 C166.53017838 51.09528275 166.53017838 51.09528275 166.43344116 52.46774292 C166.24843078 55.05738449 166.05227177 57.6459072 165.8515625 60.234375 C165.79624863 61.00115067 165.74093475 61.76792633 165.6839447 62.55793762 C165.27394024 67.56040571 164.52115683 72.20465975 163 77 C160.51500645 78.83319196 158.70790663 79.89352994 155.9375 81.0625 C155.22142578 81.38992188 154.50535156 81.71734375 153.76757812 82.0546875 C151.52415323 83.06784713 149.26484919 84.03584535 147 85 C145.66763594 85.59169907 144.33559334 86.18412264 143.00390625 86.77734375 C131.87172761 91.62783211 120.3476782 95.37296924 108.79980469 99.09521484 C106.27128461 99.91233164 103.74836815 100.74448153 101.2265625 101.58203125 C99.83882636 102.03472781 98.45082716 102.48661923 97.0625 102.9375 C95.89847656 103.31777344 94.73445312 103.69804688 93.53515625 104.08984375 C84.63090518 106.38231944 78.31025694 105.78192903 69.5 103.125 C68.41775146 102.80909912 67.33550293 102.49319824 66.22045898 102.16772461 C50.85095046 97.58695176 35.70561784 92.22111922 21 85.8125 C19.96951538 85.36789429 19.96951538 85.36789429 18.91821289 84.91430664 C16.90598302 84.00529364 14.95841436 83.01992874 13 82 C12.24376846 81.61309494 11.48753693 81.22618988 10.70838928 80.82756042 C4.57617298 77.28617189 4.57617298 77.28617189 3.05563354 73.891922 C2.57358133 71.37657707 2.36545692 68.96461762 2.24609375 66.40625 C2.16986282 65.47366364 2.0936319 64.54107727 2.01509094 63.58023071 C1.78003834 60.55485862 1.60728563 57.52967575 1.4375 54.5 C1.29124327 52.42283633 1.14246834 50.34584848 0.99121094 48.26904297 C-0.12029204 32.18264063 -0.50554548 16.11912311 0 0 Z " fill="#54C6DA" transform="translate(456,426)"/>
<path d="M0 0 C1.6555382 -0.00322491 3.31107612 -0.00658983 4.96661377 -0.01008606 C8.42940936 -0.01604569 11.89218012 -0.01792953 15.35498047 -0.01733398 C18.85731214 -0.01725315 22.35951182 -0.02413045 25.86181641 -0.0378418 C44.97683584 -0.11156941 63.87357537 -0.02555877 82.890625 2.16796875 C84.70844482 2.34863892 84.70844482 2.34863892 86.56298828 2.53295898 C134.29776886 7.28701748 134.29776886 7.28701748 145.890625 20.16796875 C147.078125 22.66796875 147.078125 22.66796875 146.890625 25.16796875 C137.53781597 38.068395 115.57267912 40.27704315 100.97265625 42.70214844 C90.99344953 44.21041257 80.93512701 45.20484681 70.890625 46.16796875 C69.78364258 46.29406776 69.78364258 46.29406776 68.65429688 46.42271423 C60.03556352 47.33340684 51.43597458 47.33192333 42.78125 47.3359375 C41.1257118 47.33916241 39.47017388 47.34252733 37.81463623 47.34602356 C34.35184064 47.35198319 30.88906988 47.35386703 27.42626953 47.35327148 C23.92393786 47.35319065 20.42173818 47.36006795 16.91943359 47.3737793 C-2.17694439 47.44737818 -21.11976493 47.47880307 -40.109375 45.16796875 C-41.41406738 45.01658447 -42.71875977 44.8652002 -44.06298828 44.70922852 C-47.31656933 44.30361026 -50.55555459 43.84883605 -53.796875 43.35546875 C-55.47595947 43.10216797 -55.47595947 43.10216797 -57.18896484 42.84375 C-64.2751899 41.72822277 -71.26795766 40.38054358 -78.234375 38.66796875 C-79.00869873 38.47871826 -79.78302246 38.28946777 -80.58081055 38.09448242 C-88.82024472 35.93535086 -96.59470826 32.73257992 -103.109375 27.16796875 C-104.359375 24.73046875 -104.359375 24.73046875 -104.109375 22.16796875 C-98.84500918 13.14334163 -87.50332201 10.62955557 -77.99609375 8.0703125 C-61.65412804 4.2763486 -44.77316583 2.82817254 -28.109375 1.16796875 C-27.00018707 1.04076698 -27.00018707 1.04076698 -25.86859131 0.91099548 C-17.25178732 0.00058699 -8.65279081 0.00401328 0 0 Z " fill="#DBDBDB" transform="translate(518.109375,800.83203125)"/>
<path d="M0 0 C4.89151908 3.39628436 9.47994817 7.12873209 14 11 C14.98355469 11.83144531 15.96710938 12.66289062 16.98046875 13.51953125 C21.10790803 17.11093945 24.34688603 20.16543677 27 25 C23.50710457 23.73867665 20.90674328 22.29016137 18 20 C5.40305215 11.01292377 -9.98693817 4.60083139 -25 1 C-26.19882812 0.71020264 -26.19882812 0.71020264 -27.421875 0.41455078 C-64.87313184 -8.27442453 -103.89144715 -1.74371515 -136.76171875 17.9765625 C-146.43721956 24.02229159 -154.81410899 31.09895138 -163 39 C-163.56122559 39.53496094 -164.12245117 40.06992187 -164.70068359 40.62109375 C-168.94706093 44.74954859 -172.61090051 49.11283285 -176.125 53.875 C-176.64416992 54.57391357 -177.16333984 55.27282715 -177.69824219 55.99291992 C-184.29614141 64.23843153 -184.29614141 64.23843153 -187 74 C-188.54467773 75.19506836 -188.54467773 75.19506836 -190.68359375 76.33984375 C-191.44607422 76.76330078 -192.20855469 77.18675781 -192.99414062 77.62304688 C-194.61838822 78.49684275 -196.24338511 79.36924729 -197.86914062 80.24023438 C-198.63291016 80.66498047 -199.39667969 81.08972656 -200.18359375 81.52734375 C-201.24404907 82.09569946 -201.24404907 82.09569946 -202.32592773 82.67553711 C-204.3873087 84.30642405 -204.63799105 85.44498069 -205 88 C-204.443125 88.268125 -203.88625 88.53625 -203.3125 88.8125 C-200.80287477 90.10122647 -198.40665764 91.52926478 -196 93 C-196.43957031 93.77859375 -196.87914062 94.5571875 -197.33203125 95.359375 C-208.76086737 118.44548959 -206.74766883 153.85936746 -200 178 C-199.78569336 178.77682129 -199.57138672 179.55364258 -199.35058594 180.35400391 C-195.10536719 195.24316631 -188.53619638 208.81249022 -179.79370117 221.57324219 C-177 225.69936186 -177 225.69936186 -177 229 C-182.54408903 224.391926 -187.48765648 219.62473039 -192 214 C-192.82371094 212.97519531 -193.64742188 211.95039062 -194.49609375 210.89453125 C-208.1038799 193.42891812 -217.07997605 173.55365969 -222.3125 152.125 C-222.47226318 151.47176758 -222.63202637 150.81853516 -222.79663086 150.14550781 C-230.68078881 115.33143723 -223.58729646 76.61262569 -205.2109375 46.26953125 C-196.39496966 32.34671689 -185.80806705 19.43028237 -173 9 C-172.10152344 8.26523437 -171.20304687 7.53046875 -170.27734375 6.7734375 C-159.3115091 -1.81622033 -146.92511932 -8.80595338 -134 -14 C-133.39639648 -14.24347168 -132.79279297 -14.48694336 -132.17089844 -14.73779297 C-121.25544117 -19.06596717 -110.59697902 -21.35512236 -99 -23 C-98.20279541 -23.17273438 -97.40559082 -23.34546875 -96.58422852 -23.5234375 C-63.99148528 -29.53392732 -27.19015487 -17.57773382 0 0 Z " fill="#EDEBEC" transform="translate(620,310)"/>
<path d="M0 0 C1.21945312 0.46148437 2.43890625 0.92296875 3.6953125 1.3984375 C5.36207031 2.03652344 5.36207031 2.03652344 7.0625 2.6875 C8.49606505 3.1783138 9.93307458 3.65931981 11.375 4.125 C39.23878813 13.34463578 66.3777758 24.43060982 92.0625 38.6875 C93.04299316 39.23051758 94.02348633 39.77353516 95.03369141 40.33300781 C98.11804616 42.05552143 101.18608389 43.80392386 104.25 45.5625 C105.22565918 46.1100293 106.20131836 46.65755859 107.20654297 47.22167969 C108.54869873 48.00526855 108.54869873 48.00526855 109.91796875 48.8046875 C110.71871826 49.26472168 111.51946777 49.72475586 112.34448242 50.19873047 C112.91142822 50.69002441 113.47837402 51.18131836 114.0625 51.6875 C114.0625 53.0075 114.0625 54.3275 114.0625 55.6875 C112.04401048 57.4230237 110.17388932 58.78069293 107.9375 60.1875 C107.27153809 60.61546875 106.60557617 61.0434375 105.91943359 61.484375 C88.77405887 72.30566796 71.02780743 80.57885527 52.0625 87.6875 C51.39887451 87.94144531 50.73524902 88.19539063 50.05151367 88.45703125 C43.46120266 90.96928747 36.79041577 93.25888457 30.125 95.5625 C29.4837619 95.78437988 28.8425238 96.00625977 28.18185425 96.23486328 C19.29824472 99.30258456 10.39563276 102.20496421 1.34765625 104.75 C-0.8338112 105.3725353 -2.9974433 106.06152151 -5.13671875 106.81640625 C-12.78858026 109.19627392 -20.79326116 105.63799887 -28.078125 103.25390625 C-31.61425705 102.0986611 -35.16603659 101.01637465 -38.734375 99.96484375 C-73.50278504 89.66640064 -106.06261867 76.39026864 -135.9375 55.6875 C-135.921875 53.4921875 -135.921875 53.4921875 -134.9375 50.6875 C-132.58929952 48.66607707 -129.90503967 47.2809582 -127.1875 45.8125 C-125.95036255 45.12172363 -125.95036255 45.12172363 -124.68823242 44.41699219 C-121.78529737 42.81323048 -118.86468933 41.24655142 -115.9375 39.6875 C-114.78781738 39.07422852 -113.63813477 38.46095703 -112.45361328 37.82910156 C-98.85649759 30.60267043 -85.23832729 23.43447654 -70.9375 17.6875 C-69.48851318 17.09340332 -69.48851318 17.09340332 -68.01025391 16.48730469 C-54.71426591 11.04668402 -41.33658006 5.97448684 -27.6875 1.5 C-26.52831055 1.11344238 -25.36912109 0.72688477 -24.17480469 0.32861328 C-15.20832256 -2.53564294 -9.01441915 -3.50044455 0 0 Z M-23.546875 11.35546875 C-24.35433167 11.63215897 -25.16178833 11.90884918 -25.99371338 12.19392395 C-27.69646185 12.7798741 -29.39743208 13.3710146 -31.09667969 13.96704102 C-33.66192409 14.86603686 -36.2325798 15.74781283 -38.8046875 16.62695312 C-47.39790725 19.58789204 -55.72863638 22.76683596 -63.9375 26.6875 C-65.48121038 27.36146215 -67.028062 28.02827969 -68.578125 28.6875 C-78.14668439 32.81460972 -87.35257486 37.38990924 -96.4375 42.5 C-97.42266602 43.05107422 -98.40783203 43.60214844 -99.42285156 44.16992188 C-100.80682129 44.96172852 -100.80682129 44.96172852 -102.21875 45.76953125 C-103.44174805 46.46912964 -103.44174805 46.46912964 -104.68945312 47.18286133 C-107.08869172 48.78869402 -108.96629043 50.5861748 -110.9375 52.6875 C-86.84971447 70.39104319 -58.10772783 80.72997762 -29.50390625 88.65625 C-25.16372651 89.91124173 -20.95517046 91.44733706 -16.74609375 93.0859375 C-10.20632078 94.48666773 -3.61330283 92.17706819 2.59375 90.17578125 C3.38793335 89.9250737 4.1821167 89.67436615 5.00036621 89.4160614 C6.67545358 88.88559587 8.34947424 88.35175118 10.02246094 87.81469727 C12.5254002 87.01189946 15.0318234 86.22089263 17.5390625 85.43164062 C56.30298218 73.97394273 56.30298218 73.97394273 89.0625 51.6875 C82.15744088 46.81880317 74.942876 42.8027471 67.4375 38.9375 C66.85145996 38.63480194 66.26541992 38.33210388 65.66162109 38.02023315 C48.01144703 28.92584855 29.84636512 21.12601906 11.0625 14.6875 C10.22074219 14.3982666 9.37898438 14.1090332 8.51171875 13.81103516 C5.95046674 12.94080467 3.38348674 12.09099566 0.8125 11.25 C0.0380957 10.99057617 -0.73630859 10.73115234 -1.53417969 10.46386719 C-2.27055664 10.22958008 -3.00693359 9.99529297 -3.765625 9.75390625 C-4.4040332 9.54709229 -5.04244141 9.34027832 -5.70019531 9.12719727 C-12.23876873 7.84217209 -17.4466105 9.20052176 -23.546875 11.35546875 Z " fill="#56C5D9" transform="translate(550.9375,342.3125)"/>
<path d="M0 0 C3.5737508 3.5737508 3.33825886 6.6198184 3.375 11.4375 C3.41367187 13.41169922 3.41367187 13.41169922 3.453125 15.42578125 C3.09859312 19.4227061 2.84128082 21.18192291 0.125 24.125 C-2.60234036 25.35784965 -5.40190454 26.020639 -8.3125 26.6875 C-19.85028906 29.51450806 -30.67108237 33.18657074 -41.375 38.375 C-42.37966309 38.86025146 -43.38432617 39.34550293 -44.41943359 39.84545898 C-51.69819113 43.42108221 -58.38222956 47.24122515 -64.875 52.125 C-65.92429687 52.89328125 -66.97359375 53.6615625 -68.0546875 54.453125 C-75.78666955 60.19218696 -82.93960869 66.45272818 -89.875 73.125 C-90.41688965 73.64497559 -90.9587793 74.16495117 -91.51708984 74.70068359 C-100.62717647 83.49343774 -108.72814904 92.69675136 -116.125 103 C-121.82259317 110.85526159 -121.82259317 110.85526159 -124.875 113.125 C-128.87307408 113.75627485 -130.88235985 113.80417484 -134.25 111.5 C-136.26519084 108.55472108 -136.60827882 106.68551603 -136.875 103.125 C-132.37144461 87.01395458 -122.87793531 72.31806062 -112.875 59.125 C-112.22917969 58.25359375 -111.58335937 57.3821875 -110.91796875 56.484375 C-96.67245886 37.89023577 -78.53490799 24.78447757 -57.875 14.125 C-57.18277344 13.76349854 -56.49054688 13.40199707 -55.77734375 13.02954102 C-51.88127438 11.02929382 -48.06604732 9.37789664 -43.875 8.0625 C-40.55933641 7.00132249 -37.29107069 5.92627577 -34.0625 4.625 C-8.15898327 -5.32107604 -8.15898327 -5.32107604 0 0 Z " fill="#FE596E" transform="translate(512.875,248.875)"/>
<path d="M0 0 C3.1807469 1.25755815 6.26313313 2.57447448 9.3125 4.125 C10.00988281 4.47820312 10.70726562 4.83140625 11.42578125 5.1953125 C11.94527344 5.46085937 12.46476562 5.72640625 13 6 C13.03738281 7.06476563 13.07476562 8.12953125 13.11328125 9.2265625 C13.9819143 29.97991438 18.7923848 49.5261412 34.390625 64.2578125 C56.9054391 83.67848548 83.94429413 89.48047567 113 88 C131.63633414 86.3353954 148.61122282 78.25918479 164 68 C164.4924247 74.40152106 164.4924247 74.40152106 162.28149414 77.08862305 C159.97946577 79.01720305 157.99585617 80.14924787 155.24609375 81.33203125 C154.31901611 81.73446045 153.39193848 82.13688965 152.43676758 82.55151367 C151.44700928 82.96763916 150.45725098 83.38376465 149.4375 83.8125 C148.40971436 84.25118408 147.38192871 84.68986816 146.32299805 85.1418457 C137.77527921 88.75343693 129.14322171 92.07040415 120.39306641 95.15576172 C117.84595301 96.05434549 115.3038589 96.96635511 112.76171875 97.87890625 C107.85622578 99.63138569 102.9341181 101.33002561 98 103 C96.90558594 103.37640625 95.81117188 103.7528125 94.68359375 104.140625 C83.44634197 107.6572614 73.28163014 104.55518427 62.375 101.0625 C61.75082184 100.86536407 61.12664368 100.66822815 60.48355103 100.46511841 C13.64141255 85.64141255 13.64141255 85.64141255 4 76 C3.6076355 74.21502686 3.6076355 74.21502686 3.40576172 72.02636719 C3.28589401 70.78894272 3.28589401 70.78894272 3.16360474 69.52651978 C3.08641205 68.625737 3.00921936 67.72495422 2.9296875 66.796875 C2.80048416 65.38950577 2.80048416 65.38950577 2.66867065 63.95370483 C2.39252884 60.88669894 2.13245973 57.81862716 1.875 54.75 C1.78528931 53.71421814 1.69557861 52.67843628 1.60314941 51.61126709 C0.12225995 34.36020976 -0.542988 17.31296358 0 0 Z " fill="#35C0D9" transform="translate(456,426)"/>
<path d="M0 0 C0 0.99 0 1.98 0 3 C-2.47787304 4.25261803 -4.95723902 5.50212561 -7.4375 6.75 C-8.46907227 7.27207031 -8.46907227 7.27207031 -9.52148438 7.8046875 C-18.58326627 12.35665236 -27.82338936 16.11880135 -37.3125 19.6875 C-53.78782604 25.97856228 -69.58854961 33.15754899 -85.25 41.25 C-86.96497681 42.13606934 -86.96497681 42.13606934 -88.71459961 43.04003906 C-94.64188304 46.13848143 -100.38865386 49.35946811 -106 53 C-104.70448305 56.88655086 -102.4447201 57.99190578 -99.125 60.0625 C-98.21886963 60.63762329 -98.21886963 60.63762329 -97.29443359 61.22436523 C-89.13391497 66.29941117 -80.55263312 70.63250398 -72 75 C-72.33 78.3 -72.66 81.6 -73 85 C-70.87498047 85.62455078 -70.87498047 85.62455078 -68.70703125 86.26171875 C-62.98641023 87.97760349 -57.3411279 89.88963347 -51.6875 91.8125 C-41.33345239 95.30225721 -30.91395957 98.43589717 -20.37597656 101.31884766 C-18.72768625 101.79138465 -17.08917507 102.29888084 -15.45996094 102.83349609 C-6.88060354 105.62841066 -0.45005297 105.5412201 8.25 102.75 C9.07209961 102.49476563 9.89419922 102.23953125 10.74121094 101.9765625 C13.83420564 101.00432204 16.9174696 100.00494657 20 99 C20.66837891 98.782229 21.33675781 98.56445801 22.02539062 98.34008789 C27.43832067 96.57428449 32.84546351 94.79131475 38.25 93 C39.00800903 92.74923706 39.76601807 92.49847412 40.54699707 92.2401123 C68.48687759 82.97614608 95.08575448 72.49204531 119 55 C119.33 55.99 119.66 56.98 120 58 C95.60740596 77.42267441 65.99270231 87.85895912 36.875 97.9375 C36.24125458 98.15688232 35.60750916 98.37626465 34.95455933 98.60229492 C26.12597428 101.65201551 17.27741197 104.53313748 8.28515625 107.0625 C6.1036888 107.6850353 3.9400567 108.37402151 1.80078125 109.12890625 C-5.85108026 111.50877392 -13.85576116 107.95049887 -21.140625 105.56640625 C-24.67675705 104.4111611 -28.22853659 103.32887465 -31.796875 102.27734375 C-66.56528504 91.97890064 -99.12511867 78.70276864 -129 58 C-128.984375 55.8046875 -128.984375 55.8046875 -128 53 C-125.65179952 50.97857707 -122.96753967 49.5934582 -120.25 48.125 C-119.01286255 47.43422363 -119.01286255 47.43422363 -117.75073242 46.72949219 C-114.84779737 45.12573048 -111.92718933 43.55905142 -109 42 C-107.85031738 41.38672852 -106.70063477 40.77345703 -105.51611328 40.14160156 C-91.91899759 32.91517043 -78.30082729 25.74697654 -64 20 C-62.55101318 19.40590332 -62.55101318 19.40590332 -61.07275391 18.79980469 C-47.77676591 13.35918402 -34.39908006 8.28698684 -20.75 3.8125 C-19.59081055 3.42594238 -18.43162109 3.03938477 -17.23730469 2.64111328 C-11.26590376 0.73360686 -6.27205266 -0.46657953 0 0 Z " fill="#38C2DA" transform="translate(544,340)"/>
<path d="M0 0 C0 0.66 0 1.32 0 2 C-1.43359375 3.41015625 -1.43359375 3.41015625 -3.4375 5.0625 C-17.82807762 17.40450681 -27.00931796 30.96104565 -35 48 C-35.66157279 49.33586813 -36.32524861 50.67073976 -37 52 C-40.43822762 51.42602173 -43.20700873 50.57415699 -46.29296875 48.9609375 C-47.08405029 48.54827637 -47.87513184 48.13561523 -48.69018555 47.71044922 C-49.9263562 47.04940186 -49.9263562 47.04940186 -51.1875 46.375 C-52.03159424 45.92785645 -52.87568848 45.48071289 -53.74536133 45.02001953 C-59.82869885 41.74847593 -65.53569623 38.24221013 -71 34 C-67.49126658 29.97419008 -63.38090319 27.75225255 -58.75 25.25 C-57.95223145 24.81389404 -57.15446289 24.37778809 -56.33251953 23.9284668 C-44.09825071 17.2855181 -31.67302609 11.23497901 -18.85888672 5.79492188 C-17.06758793 5.02890285 -15.28551735 4.24141326 -13.50390625 3.453125 C-12.45074219 2.99421875 -11.39757812 2.5353125 -10.3125 2.0625 C-9.40113281 1.66160156 -8.48976563 1.26070313 -7.55078125 0.84765625 C-4.87606702 -0.04118447 -2.79822168 -0.16638075 0 0 Z " fill="#36C2DB" transform="translate(511,361)"/>
<path d="M0 0 C3.00683978 1.25927081 6.02828433 2.46489391 9.06542969 3.64892578 C31.1185867 12.26338365 51.70079845 22.41763929 72.16308594 34.32470703 C72.16308594 35.64470703 72.16308594 36.96470703 72.16308594 38.32470703 C67.27531278 43.15373291 60.48199789 46.40505256 54.53808594 49.82470703 C53.94898438 50.16783936 53.35988281 50.51097168 52.75292969 50.86450195 C40.68181512 57.63568199 27.56035424 62.47382019 14.56396484 67.13232422 C12.29289437 67.94798008 10.02677762 68.77643057 7.76074219 69.60595703 C0.08941035 72.38848635 -7.61430644 74.94554152 -15.46972656 77.16064453 C-16.19110809 77.36621979 -16.91248962 77.57179504 -17.6557312 77.78359985 C-24.99396105 79.78910466 -31.23628119 80.92288453 -38.73535156 78.74267578 C-39.37169525 78.56036911 -40.00803894 78.37806244 -40.66366577 78.19023132 C-42.72837368 77.58934666 -44.7830355 76.96157555 -46.83691406 76.32470703 C-47.53288696 76.11009827 -48.22885986 75.8954895 -48.94592285 75.67437744 C-54.13947955 74.05939312 -59.30430561 72.36316574 -64.46191406 70.63720703 C-65.24795013 70.3749231 -66.03398621 70.11263916 -66.84384155 69.84240723 C-79.45532766 65.61858238 -91.83804364 61.09857888 -103.83691406 55.32470703 C-104.86800293 54.83091553 -104.86800293 54.83091553 -105.91992188 54.32714844 C-115.60054779 49.61328778 -124.24237935 43.78716148 -132.83691406 37.32470703 C-131.6594994 33.79246305 -131.04332152 33.56726105 -127.91894531 31.79345703 C-127.08862793 31.31835693 -126.25831055 30.84325684 -125.40283203 30.35375977 C-124.4942041 29.84917236 -123.58557617 29.34458496 -122.64941406 28.82470703 C-121.70469238 28.29498291 -120.7599707 27.76525879 -119.78662109 27.21948242 C-101.02552169 16.79682173 -81.84683823 8.08345042 -61.83691406 0.32470703 C-61.07314453 0.02806152 -60.309375 -0.26858398 -59.52246094 -0.57421875 C-55.66094084 -2.05700442 -51.77774159 -3.41915419 -47.83691406 -4.67529297 C-47.22460938 -4.8723584 -46.61230469 -5.06942383 -45.98144531 -5.27246094 C-29.03113374 -10.6222973 -15.99317741 -6.76711008 0 0 Z M-42.44628906 -4.00732422 C-43.25374573 -3.730634 -44.06120239 -3.45394379 -44.89312744 -3.16886902 C-46.59587591 -2.58291887 -48.29684614 -1.99177837 -49.99609375 -1.39575195 C-52.56133815 -0.49675611 -55.13199387 0.38501986 -57.70410156 1.26416016 C-66.29732132 4.22509907 -74.62805044 7.40404299 -82.83691406 11.32470703 C-84.38062444 11.99866918 -85.92747606 12.66548672 -87.47753906 13.32470703 C-97.04609845 17.45181675 -106.25198892 22.02711627 -115.33691406 27.13720703 C-116.32208008 27.68828125 -117.30724609 28.23935547 -118.32226562 28.80712891 C-119.70623535 29.59893555 -119.70623535 29.59893555 -121.11816406 30.40673828 C-122.34116211 31.10633667 -122.34116211 31.10633667 -123.58886719 31.82006836 C-125.98810578 33.42590105 -127.8657045 35.22338183 -129.83691406 37.32470703 C-105.74912853 55.02825022 -77.00714189 65.36718465 -48.40332031 73.29345703 C-44.06314057 74.54844876 -39.85458453 76.08454409 -35.64550781 77.72314453 C-29.10573484 79.12387477 -22.51271689 76.81427523 -16.30566406 74.81298828 C-15.51148071 74.56228073 -14.71729736 74.31157318 -13.89904785 74.05326843 C-12.22396048 73.5228029 -10.54993982 72.98895821 -8.87695312 72.4519043 C-6.37401386 71.6491065 -3.86759066 70.85809966 -1.36035156 70.06884766 C37.40356812 58.61114976 37.40356812 58.61114976 70.16308594 36.32470703 C63.25802681 31.4560102 56.04346194 27.43995413 48.53808594 23.57470703 C47.9520459 23.27200897 47.36600586 22.96931091 46.76220703 22.65744019 C29.11203296 13.56305559 10.94695105 5.76322609 -7.83691406 -0.67529297 C-8.67867187 -0.96452637 -9.52042969 -1.25375977 -10.38769531 -1.55175781 C-12.94894732 -2.4219883 -15.51592732 -3.27179731 -18.08691406 -4.11279297 C-18.86131836 -4.3722168 -19.63572266 -4.63164062 -20.43359375 -4.89892578 C-21.1699707 -5.13321289 -21.90634766 -5.3675 -22.66503906 -5.60888672 C-23.30344727 -5.81570068 -23.94185547 -6.02251465 -24.59960938 -6.2355957 C-31.13818279 -7.52062088 -36.34602457 -6.16227121 -42.44628906 -4.00732422 Z " fill="#E3F0E7" transform="translate(569.8369140625,357.67529296875)"/>
<path d="M0 0 C0.47566406 0.32871094 0.95132812 0.65742188 1.44140625 0.99609375 C8.77505109 5.97973085 16.34018202 10.54054363 24 15 C25.65902344 15.97453125 25.65902344 15.97453125 27.3515625 16.96875 C52.53080971 31.09228177 80.89579078 39.7330391 108.62402344 47.31884766 C110.27231375 47.79138465 111.91082493 48.29888084 113.54003906 48.83349609 C122.11939646 51.62841066 128.54994703 51.5412201 137.25 48.75 C138.07209961 48.49476563 138.89419922 48.23953125 139.74121094 47.9765625 C142.83420564 47.00432204 145.9174696 46.00494657 149 45 C149.66837891 44.782229 150.33675781 44.56445801 151.02539062 44.34008789 C156.43832067 42.57428449 161.84546351 40.79131475 167.25 39 C168.00800903 38.74923706 168.76601807 38.49847412 169.54699707 38.2401123 C197.48687759 28.97614608 224.08575448 18.49204531 248 1 C248.33 1.99 248.66 2.98 249 4 C224.60740596 23.42267441 194.99270231 33.85895912 165.875 43.9375 C165.24125458 44.15688232 164.60750916 44.37626465 163.95455933 44.60229492 C155.12597428 47.65201551 146.27741197 50.53313748 137.28515625 53.0625 C135.1036888 53.6850353 132.9400567 54.37402151 130.80078125 55.12890625 C123.14891974 57.50877392 115.14423884 53.95049887 107.859375 51.56640625 C104.32324295 50.4111611 100.77146341 49.32887465 97.203125 48.27734375 C66.9095479 39.30435131 37.50850019 28.34010062 10.85449219 11.18505859 C9.21299199 10.13610626 7.54935298 9.1219768 5.8828125 8.11328125 C5.05523437 7.60152344 4.22765625 7.08976562 3.375 6.5625 C2.70210938 6.15128906 2.02921875 5.74007813 1.3359375 5.31640625 C0.89507812 4.88199219 0.45421875 4.44757813 0 4 C0 2.68 0 1.36 0 0 Z " fill="#27325A" transform="translate(415,394)"/>
<path d="M0 0 C4.59744161 0.74968105 8.82053346 2.24536953 13.1875 3.8125 C13.89197266 4.06064453 14.59644531 4.30878906 15.32226562 4.56445312 C19.19536358 5.94194407 23.01008715 7.40875135 26.80859375 8.98046875 C32.38636975 11.23103713 38.08897094 12.87636001 43.875 14.5 C51.15905686 16.57029329 58.362049 18.6611053 65.4375 21.37109375 C73.29965045 23.30067641 79.68581557 21.15270497 87.125 18.625 C88.72166504 18.097854 88.72166504 18.097854 90.35058594 17.56005859 C92.66095086 16.79536971 94.96948214 16.02512358 97.27636719 15.25 C101.22436513 13.92468204 105.17798838 12.61725474 109.1328125 11.3125 C114.36678364 9.58210919 119.59953112 7.84813979 124.828125 6.1015625 C125.8996582 5.74400879 126.97119141 5.38645508 128.07519531 5.01806641 C130.99241293 4.04718678 130.99241293 4.04718678 133.69824219 2.80615234 C136 2 136 2 139 3 C125.16539263 9.25352202 111.2035159 14.53147077 96.73535156 19.12744141 C94.23164695 19.92610619 91.73609646 20.74557679 89.2421875 21.57421875 C87.84920178 22.02939155 86.45599087 22.48387605 85.0625 22.9375 C83.89847656 23.31777344 82.73445312 23.69804688 81.53515625 24.08984375 C72.63090518 26.38231944 66.31025694 25.78192903 57.5 23.125 C56.41775146 22.80909912 55.33550293 22.49319824 54.22045898 22.16772461 C38.66658375 17.53200257 23.3653994 12.0841043 8.5 5.5625 C7.745979 5.23258057 6.99195801 4.90266113 6.21508789 4.56274414 C1.12759069 2.25518138 1.12759069 2.25518138 0 0 Z " fill="#28325B" transform="translate(468,506)"/>
<path d="M0 0 C-13.89423407 6.28047449 -27.92052528 11.50394569 -42.43994141 16.14746094 C-44.8277304 16.94263156 -47.16712404 17.81308404 -49.51171875 18.7265625 C-53 20 -53 20 -56 20 C-55.45556641 18.16162109 -55.45556641 18.16162109 -54 16 C-51.53399606 14.94065762 -49.27345925 14.14510829 -46.7109375 13.4140625 C-45.9748526 13.18979584 -45.2387677 12.96552917 -44.4803772 12.73446655 C-42.11603857 12.01667028 -39.74617355 11.31984939 -37.375 10.625 C-34.29716398 9.70811523 -31.22231626 8.78161875 -28.1484375 7.8515625 C-27.39004578 7.62446594 -26.63165405 7.39736938 -25.85028076 7.16339111 C-19.78922454 5.31924098 -13.88174155 3.1573228 -8.01791382 0.75942993 C-3.31713966 -1.10571322 -3.31713966 -1.10571322 0 0 Z " fill="#22345D" transform="translate(607,509)"/>
<path d="M0 0 C4.94731692 0.39897717 9.34232222 1.01106172 14.0625 2.5625 C20.21792945 4.52191466 25.67821971 4.58044507 32 3 C32 3.99 32 4.98 32 6 C28.02268464 8.65154357 24.69052995 9.28041212 20 9 C13.13819798 7.19877697 6.56867032 4.67008927 0 2 C0 1.34 0 0.68 0 0 Z " fill="#26325A" transform="translate(517,441)"/>
<path d="M0 0 C4.72348721 0.76064108 9.07595215 2.33158545 13.5625 3.9375 C14.69461914 4.33485352 14.69461914 4.33485352 15.84960938 4.74023438 C19.35678413 5.98551316 22.68974272 7.28659056 26 9 C26 9.99 26 10.98 26 12 C19.99595409 10.17734321 14.25630428 7.91904124 8.5 5.4375 C7.78134766 5.13255615 7.06269531 4.8276123 6.32226562 4.51342773 C1.11935515 2.23871029 1.11935515 2.23871029 0 0 Z " fill="#2B385F" transform="translate(468,506)"/>
<path d="M0 0 C0 0.99 0 1.98 0 3 C-5.324335 5.32086397 -9.43842552 4.91457003 -15 4 C-15 3.01 -15 2.02 -15 1 C-12.87630763 0.63807496 -10.7509887 0.28568253 -8.625 -0.0625 C-6.84996094 -0.35833984 -6.84996094 -0.35833984 -5.0390625 -0.66015625 C-2 -1 -2 -1 0 0 Z " fill="#364369" transform="translate(549,445)"/>
<path d="M0 0 C-2.54996436 3.1166231 -5.14330357 4.01692052 -9 5 C-14.37931034 5.31034483 -14.37931034 5.31034483 -17 4 C-17 3.34 -17 2.68 -17 2 C-16.11248047 1.92652344 -16.11248047 1.92652344 -15.20703125 1.8515625 C-10.18883505 1.37675764 -4.54536425 -1.51512142 0 0 Z " fill="#1D2A54" transform="translate(552,527)"/>
<path d="M0 0 C-3.38633094 1.5426569 -6.78532341 3.05514987 -10.1875 4.5625 C-11.14720703 5.00013672 -12.10691406 5.43777344 -13.09570312 5.88867188 C-14.02705078 6.29794922 -14.95839844 6.70722656 -15.91796875 7.12890625 C-16.77156982 7.51119385 -17.6251709 7.89348145 -18.50463867 8.28735352 C-21.39171802 9.11187016 -23.14108636 8.8081972 -26 8 C-21.61209748 5.73296886 -17.05756033 4.04198995 -12.4375 2.3125 C-11.57447266 1.97927734 -10.71144531 1.64605469 -9.82226562 1.30273438 C-8.99275391 0.99271484 -8.16324219 0.68269531 -7.30859375 0.36328125 C-6.55376709 0.07751221 -5.79894043 -0.20825684 -5.02124023 -0.50268555 C-3 -1 -3 -1 0 0 Z " fill="#2C446A" transform="translate(607,509)"/>
<path d="M0 0 C0 0.99 0 1.98 0 3 C-1.9570868 3.67031719 -3.91571113 4.33614683 -5.875 5 C-6.96554687 5.37125 -8.05609375 5.7425 -9.1796875 6.125 C-12 7 -12 7 -14 7 C-14 6.34 -14 5.68 -14 5 C-14.66 4.67 -15.32 4.34 -16 4 C-13.71144298 3.13656269 -11.4198072 2.2840189 -9.125 1.4375 C-8.47402344 1.19064453 -7.82304688 0.94378906 -7.15234375 0.68945312 C-2.2265625 -1.11328125 -2.2265625 -1.11328125 0 0 Z " fill="#293860" transform="translate(602,428)"/>
<path d="M0 0 C0.66 0.33 1.32 0.66 2 1 C1 4 1 4 -1.21484375 5.38671875 C-2.56255859 6.03060547 -2.56255859 6.03060547 -3.9375 6.6875 C-4.83339844 7.12449219 -5.72929688 7.56148438 -6.65234375 8.01171875 C-9 9 -9 9 -11 9 C-11.33 8.01 -11.66 7.02 -12 6 C-10.04669132 4.96958487 -8.08718472 3.9509107 -6.125 2.9375 C-5.03445313 2.36902344 -3.94390625 1.80054688 -2.8203125 1.21484375 C-1.42425781 0.61349609 -1.42425781 0.61349609 0 0 Z " fill="#2C3960" transform="translate(637,411)"/>
<path d="M0 0 C4.8274799 1.41292095 8.7162359 3.42974154 13 6 C13 6.66 13 7.32 13 8 C8.00786149 7.53198701 3.87036007 5.08284263 0 2 C0 1.34 0 0.68 0 0 Z " fill="#1F2B55" transform="translate(433,407)"/>
<path d="M0 0 C0 0.66 0 1.32 0 2 C-1.24420647 2.5345256 -2.49570936 3.05208611 -3.75 3.5625 C-4.44609375 3.85253906 -5.1421875 4.14257812 -5.859375 4.44140625 C-8.30012784 5.07831803 -9.6403655 4.80248831 -12 4 C-11 2 -11 2 -8.25 0.875 C-5.29813104 0.08026605 -3.02780163 -0.17810598 0 0 Z " fill="#1E2A54" transform="translate(588,433)"/>
<path d="M0 0 C-6.33333333 4.22222222 -6.33333333 4.22222222 -10.8125 3.625 C-11.534375 3.41875 -12.25625 3.2125 -13 3 C-8.38322418 -0.07785055 -5.48548106 -1.5672803 0 0 Z " fill="#D2EBE6" transform="translate(527,354)"/>
<path d="M0 0 C0.33 0.66 0.66 1.32 1 2 C-1.97 2.66 -4.94 3.32 -8 4 C-8 3.34 -8 2.68 -8 2 C-8.66 1.67 -9.32 1.34 -10 1 C-3.44680851 -1.53191489 -3.44680851 -1.53191489 0 0 Z " fill="#273960" transform="translate(577,437)"/>
<path d="M0 0 C-1.74468372 0.70088156 -3.49601161 1.38524009 -5.25 2.0625 C-6.22453125 2.44535156 -7.1990625 2.82820313 -8.203125 3.22265625 C-11.04007395 4.01113787 -12.29409552 4.02437812 -15 3 C-9.68559837 0.15741308 -5.90359388 -1.6440388 0 0 Z " fill="#EFF3E8" transform="translate(541,350)"/>
<path d="M0 0 C3.66172475 0.62678171 6.8818995 1.64451846 10.3125 3.0625 C11.19550781 3.42472656 12.07851563 3.78695313 12.98828125 4.16015625 C13.65214844 4.43730469 14.31601562 4.71445312 15 5 C14.67 5.66 14.34 6.32 14 7 C9.0276578 5.50829734 4.58154261 3.39542583 0 1 C0 0.67 0 0.34 0 0 Z " fill="#31446A" transform="translate(468,506)"/>
<path d="M0 0 C0.33 0.66 0.66 1.32 1 2 C-1.97 2.66 -4.94 3.32 -8 4 C-5.68460883 -0.63078234 -4.96616141 -1.65538714 0 0 Z " fill="#303E65" transform="translate(559,525)"/>
<path d="M0 0 C-1.97420135 2.52259061 -2.96745642 2.9929808 -6.1875 3.6875 C-7.5796875 3.8421875 -7.5796875 3.8421875 -9 4 C-6.35287314 0.09233654 -4.86783735 -1.62261245 0 0 Z " fill="#1D2852" transform="translate(609,426)"/>
<path d="M0 0 C4.75 0.875 4.75 0.875 7 2 C7 2.66 7 3.32 7 4 C4.69 3.67 2.38 3.34 0 3 C0 2.01 0 1.02 0 0 Z " fill="#232C55" transform="translate(456,419)"/>
<path d="M0 0 C2.97 1.98 2.97 1.98 6 4 C5.67 4.99 5.34 5.98 5 7 C2.5 5.75 2.5 5.75 0 4 C0 2.68 0 1.36 0 0 Z " fill="#29385F" transform="translate(415,394)"/>
<path d="M0 0 C-0.33 0.99 -0.66 1.98 -1 3 C-2.98 3 -4.96 3 -7 3 C-7 2.34 -7 1.68 -7 1 C-4.53721199 -0.231394 -2.7204945 -0.07159196 0 0 Z " fill="#1D2852" transform="translate(569,439)"/>
<path d="M0 0 C2 1 4 2 6 3 C6 3.66 6 4.32 6 5 C2.73045798 4.43628586 1.17424117 3.50037734 -1 1 C-0.67 0.67 -0.34 0.34 0 0 Z " fill="#1F2C56" transform="translate(421,399)"/>
</svg>
